<?xml version="1.0" encoding="UTF-8"?>
<svg version="1.1" xmlns="http://www.w3.org/2000/svg" width="512" height="512">
<path d="M0 0 C1.01790619 0.00215515 2.03581238 0.0043103 3.08456421 0.00653076 C17.69363523 0.05620146 32.02575853 0.30709809 46.375 3.3125 C47.34985352 3.51117676 48.32470703 3.70985352 49.32910156 3.91455078 C88.38660539 12.08468046 124.82400319 27.71035417 156.375 52.3125 C157.25929688 52.98539063 158.14359375 53.65828125 159.0546875 54.3515625 C174.64162389 66.45260257 189.26666068 80.75087979 201.375 96.3125 C202.15101563 97.2715625 202.92703125 98.230625 203.7265625 99.21875 C238.25804162 142.62975232 256.81395322 197.76040062 256.69067383 253.03979492 C256.6875221 255.97938487 256.71104926 258.9179558 256.73632812 261.85742188 C256.78098737 275.23056192 255.57551542 288.12666711 253.375 301.3125 C253.09281616 303.01805054 253.09281616 303.01805054 252.80493164 304.75805664 C245.77946967 343.86954746 228.79665906 381.05202178 204.375 412.3125 C203.61574219 413.28445313 202.85648437 414.25640625 202.07421875 415.2578125 C189.73986402 430.63741644 175.93895499 445.19015196 160.375 457.3125 C159.43914062 458.07691406 158.50328125 458.84132813 157.5390625 459.62890625 C125.58628299 485.2157721 86.41988322 501.72551276 46.375 509.3125 C45.56562988 509.47621094 44.75625977 509.63992188 43.92236328 509.80859375 C13.88110013 515.67977137 -20.7615176 514.58512909 -50.625 508.3125 C-52.14794678 507.99901611 -52.14794678 507.99901611 -53.70166016 507.67919922 C-90.84546555 499.78695344 -125.70945445 483.68345578 -155.625 460.3125 C-156.59695312 459.55324219 -157.56890625 458.79398437 -158.5703125 458.01171875 C-173.94991644 445.67736402 -188.50265196 431.87645499 -200.625 416.3125 C-201.77162109 414.90871094 -201.77162109 414.90871094 -202.94140625 413.4765625 C-228.5282721 381.52378299 -245.03801276 342.35738322 -252.625 302.3125 C-252.78871094 301.50312988 -252.95242187 300.69375977 -253.12109375 299.85986328 C-258.59069558 271.87335724 -258.46977511 238.21828161 -252.625 210.3125 C-252.42632324 209.33764648 -252.22764648 208.36279297 -252.02294922 207.35839844 C-241.93598313 159.13741149 -219.89911449 114.53770064 -185.40722656 79.14160156 C-183.63301167 77.32072238 -181.87518486 75.48496071 -180.1171875 73.6484375 C-173.01562574 66.30860161 -165.60158994 59.73928631 -157.40917969 53.64355469 C-155.59628085 52.2910746 -153.80174757 50.91656557 -152.0078125 49.5390625 C-143.60124472 43.15234877 -134.85975388 37.61076633 -125.65234375 32.45166016 C-123.78933792 31.40484113 -121.94116361 30.33571119 -120.09375 29.26171875 C-83.4933446 8.69459905 -41.63834482 -0.15855121 0 0 Z M-156.34765625 151.234375 C-161.49940616 157.76583189 -164.08263951 163.6993831 -164.02613831 172.05888367 C-164.03293498 172.80777149 -164.03973164 173.5566593 -164.04673427 174.32824069 C-164.06562626 176.82142857 -164.06327468 179.31412181 -164.06079102 181.80737305 C-164.06977372 183.60172655 -164.07998314 185.39607428 -164.09132385 187.19041443 C-164.11777982 192.05431802 -164.12485557 196.91806318 -164.12677121 201.78203177 C-164.12890679 204.82499373 -164.13531753 207.86791569 -164.14326286 210.91086769 C-164.17100456 221.53883028 -164.1832702 232.16668014 -164.1809082 242.79467773 C-164.17910748 252.68147849 -164.21073515 262.56778732 -164.25813919 272.45446366 C-164.29745134 280.95835469 -164.31345626 289.46208553 -164.31154197 297.96606666 C-164.31077936 303.03810259 -164.31920227 308.1097014 -164.35107613 313.18164635 C-164.38026434 317.95650265 -164.38025981 322.73050842 -164.35852623 327.50539589 C-164.35540624 329.24999875 -164.36237279 330.99465591 -164.3806076 332.73916626 C-164.49356527 344.30202074 -163.57052952 353.81811948 -155.34952641 362.7980299 C-148.51710679 369.36165522 -141.2672163 372.42956152 -131.75853443 372.44392776 C-130.80029579 372.44776891 -129.84205715 372.45161005 -128.85478097 372.4555676 C-127.28767933 372.45426787 -127.28767933 372.45426787 -125.68891907 372.45294189 C-124.57280925 372.45591302 -123.45669944 372.45888414 -122.30676812 372.4619453 C-118.55907809 372.47063127 -114.81142001 372.47214047 -111.0637207 372.47363281 C-108.37973378 372.47826106 -105.69574975 372.48326521 -103.01176453 372.48867798 C-95.71410291 372.50224824 -88.41644679 372.50828403 -81.11877465 372.51268864 C-76.55989163 372.51545337 -72.00101073 372.51969116 -67.44212914 372.52419281 C-54.81374526 372.53638396 -42.18536308 372.54668346 -29.55697346 372.5500679 C-28.7490392 372.55028747 -27.94110494 372.55050703 -27.10868783 372.55073325 C-26.29884717 372.55095153 -25.48900652 372.55116981 -24.65462524 372.5513947 C-23.01364664 372.55183816 -21.37266805 372.55228473 -19.73168945 372.55273438 C-18.91771162 372.5529558 -18.10373378 372.55317723 -17.26508995 372.55340537 C-4.08042395 372.55735206 9.10418674 372.5748028 22.28883138 372.5980939 C35.83336879 372.62182712 49.37787847 372.63427066 62.92243701 372.63543582 C70.52393629 372.63635149 78.1253635 372.6420766 85.72684288 372.66025543 C92.20061341 372.67568307 98.67428959 372.68076123 105.14807501 372.67251733 C108.44858936 372.66862015 111.74887487 372.67113871 115.04937363 372.68357468 C118.63441196 372.69628894 122.21896569 372.69041959 125.80400085 372.67999268 C126.83758167 372.68804908 127.87116249 372.69610548 128.93606395 372.70440602 C139.17856531 372.63491353 147.82202592 370.50812907 155.375 363.3125 C161.7416361 356.3395176 164.84078159 348.95329882 164.77613831 339.48382568 C164.78293498 338.73816699 164.78973164 337.9925083 164.79673427 337.22425389 C164.81558878 334.74799002 164.81327716 332.27222573 164.81079102 329.79589844 C164.81977597 328.0112495 164.82998591 326.22660637 164.84132385 324.44197083 C164.86775448 319.60911694 164.87485442 314.77642256 164.87677121 309.94350338 C164.87890795 306.91946455 164.88532082 303.8954659 164.89326286 300.87143707 C164.92099444 290.3083083 164.93327126 279.74529288 164.9309082 269.18212891 C164.92910697 259.35722216 164.96074737 249.53281016 165.00813919 239.70802855 C165.04745132 231.25507222 165.0634563 222.80227703 165.06154197 214.34923005 C165.06077946 209.30850704 165.06919679 204.2682239 165.10107613 199.22759247 C165.130265 194.48308988 165.13025941 189.73944325 165.10852623 184.99490929 C165.10540649 183.2615934 165.11237127 181.52822284 165.1306076 179.79500008 C165.24398666 168.26508674 164.29467414 158.77973246 156.09952641 149.82654953 C149.26644333 143.26361606 142.01740682 140.19543877 132.50853443 140.18107224 C131.55029579 140.17723109 130.59205715 140.17338995 129.60478097 140.1694324 C128.56004654 140.17029888 127.51531211 140.17116537 126.43891907 140.17205811 C124.76475435 140.16760142 124.76475435 140.16760142 123.05676812 140.1630547 C119.30907809 140.15436873 115.56142001 140.15285953 111.8137207 140.15136719 C109.12973378 140.14673894 106.44574975 140.14173479 103.76176453 140.13632202 C96.46410291 140.12275176 89.16644679 140.11671597 81.86877465 140.11231136 C77.30989163 140.10954663 72.75101073 140.10530884 68.19212914 140.10080719 C55.56374526 140.08861604 42.93536308 140.07831654 30.30697346 140.0749321 C29.4990392 140.07471253 28.69110494 140.07449297 27.85868783 140.07426675 C27.04884717 140.07404847 26.23900652 140.07383019 25.40462524 140.0736053 C23.76364664 140.07316184 22.12266805 140.07271527 20.48168945 140.07226562 C19.66771162 140.0720442 18.85373378 140.07182277 18.01508995 140.07159463 C4.83042395 140.06764794 -8.35418674 140.0501972 -21.53883138 140.0269061 C-35.08336879 140.00317288 -48.62787847 139.99072934 -62.17243701 139.98956418 C-69.77393629 139.98864851 -77.3753635 139.9829234 -84.97684288 139.96474457 C-91.45061341 139.94931693 -97.92428959 139.94423877 -104.39807501 139.95248267 C-107.69858936 139.95637985 -110.99887487 139.95386129 -114.29937363 139.94142532 C-117.88441196 139.92871106 -121.46896569 139.93458041 -125.05400085 139.94500732 C-126.60437208 139.93292272 -126.60437208 139.93292272 -128.18606395 139.92059398 C-139.43918108 139.99694322 -148.68356976 142.68396559 -156.34765625 151.234375 Z " fill="#000000" transform="translate(255.625,-0.3125)"/>
<path d="M0 0 C2.76546296 1.34588941 5.06459584 2.72035258 7.43359375 4.6875 C8.07554688 5.21601563 8.7175 5.74453125 9.37890625 6.2890625 C10.05824219 6.85367188 10.73757812 7.41828125 11.4375 8 C16.40069926 12.08205156 21.38587049 16.10839707 26.5 20 C32.11560336 24.28120256 37.59275315 28.7134281 43.05859375 33.18359375 C48.18742825 37.36738389 53.40793026 41.40518329 58.671875 45.41796875 C62.42704455 48.30647402 66.08585728 51.30995713 69.75 54.3125 C75.23055511 58.80150514 80.78764692 63.16374332 86.4375 67.4375 C92.23923832 71.82859618 97.90797405 76.34491529 103.5 81 C109.3063063 85.82981569 115.18818025 90.53667009 121.1875 95.125 C121.88230469 95.65738281 122.57710938 96.18976563 123.29296875 96.73828125 C130.41549375 102.9210328 130.41549375 102.9210328 139 105.5 C139.928125 105.51546875 139.928125 105.51546875 140.875 105.53125 C146.39607462 104.15098135 150.98035481 99.54953464 155.375 96.0625 C155.97368896 95.59013916 156.57237793 95.11777832 157.18920898 94.63110352 C162.53863415 90.39668816 167.82287191 86.08328654 173.10693359 81.76782227 C178.22104918 77.60280058 183.4264564 73.58069395 188.671875 69.58203125 C192.42704455 66.69352598 196.08585728 63.69004287 199.75 60.6875 C205.23055511 56.19849486 210.78764692 51.83625668 216.4375 47.5625 C222.97559629 42.61408487 229.32427476 37.47713212 235.62475586 32.23071289 C241.16593237 27.63672428 246.84482419 23.25513836 252.59204102 18.9230957 C258.76795741 14.24249946 264.73409396 9.32720176 270.64453125 4.31640625 C271.31742187 3.75179687 271.9903125 3.1871875 272.68359375 2.60546875 C273.27712646 2.10168701 273.87065918 1.59790527 274.48217773 1.07885742 C276 0 276 0 278 0 C278.07002057 21.33110836 278.12295404 42.66219782 278.15543652 63.99339771 C278.17091826 73.8974116 278.1920327 83.80135416 278.22631836 93.70532227 C278.25618075 102.3356586 278.27556549 110.9659433 278.28226548 119.59632987 C278.28618312 124.16784442 278.29541711 128.7392112 278.31719017 133.31067848 C278.33750547 137.61078761 278.3438439 141.91068766 278.33932304 146.21084023 C278.34015047 147.79151037 278.34614564 149.37218727 278.35761642 150.95281601 C278.37248348 153.1065241 278.36897546 155.25943677 278.36076355 157.41316223 C278.36352893 158.61978925 278.36629431 159.82641626 278.36914349 161.06960773 C278 164 278 164 276.76497155 165.6595543 C274.49700351 167.38201153 273.22329633 167.37584846 270.39131165 167.37752342 C269.439705 167.38534666 268.48809835 167.39316991 267.50765514 167.40123022 C266.46010209 167.39453805 265.41254904 167.38784589 264.33325195 167.38095093 C262.66649272 167.38797089 262.66649272 167.38797089 260.96606159 167.39513266 C257.22334859 167.40714829 253.48099731 167.3975996 249.73828125 167.38818359 C247.06292645 167.39224638 244.38759702 167.3974776 241.71224976 167.40411377 C235.18841605 167.41747319 228.66468572 167.41456358 222.14084792 167.40587585 C216.84011596 167.39910837 211.53941302 167.39817852 206.23867798 167.4014473 C205.10823955 167.40213684 205.10823955 167.40213684 203.95496398 167.40284032 C202.42412177 167.40379947 200.89327956 167.40477211 199.36243737 167.4057581 C184.99829367 167.41431846 170.63420735 167.40446775 156.27007306 167.388357 C143.93750694 167.37495322 131.60502553 167.37728113 119.27246094 167.39111328 C104.96069919 167.40715771 90.64898777 167.41349443 76.33721828 167.40427649 C74.81191954 167.40332081 73.28662078 167.4023777 71.76132202 167.4014473 C71.01079113 167.40098447 70.26026024 167.40052164 69.48698598 167.40004479 C64.19090686 167.39745148 58.89485959 167.40183322 53.5987854 167.40888596 C47.14707667 167.41728854 40.69547747 167.4150471 34.24378133 167.39904372 C30.95023332 167.39114412 27.65690649 167.38970519 24.36335373 167.39799118 C20.79763366 167.4061374 17.23243454 167.39596868 13.66674805 167.38095093 C12.61919499 167.38764309 11.57164194 167.39433526 10.49234486 167.40123022 C9.54073821 167.39340697 8.58913157 167.38558373 7.60868835 167.37752342 C6.78518229 167.37703637 5.96167624 167.37654931 5.11321545 167.37604749 C2.47338015 166.9062878 1.58689714 166.13237354 0 164 C-0.36914349 161.06960773 -0.36914349 161.06960773 -0.36076355 157.41316223 C-0.36332682 156.74089637 -0.3658901 156.06863051 -0.36853105 155.37599295 C-0.37348069 153.11866501 -0.35695738 150.86200286 -0.34057617 148.60473633 C-0.33973015 146.98855098 -0.34020455 145.37236448 -0.34190369 143.75617981 C-0.34276604 139.36383499 -0.32510148 134.97173488 -0.30418181 130.57944703 C-0.28545501 125.99102146 -0.28366773 121.40259057 -0.28010559 116.81413269 C-0.27077336 108.12309999 -0.24614365 99.43218021 -0.21605712 90.74119729 C-0.18254975 80.84774057 -0.16603633 70.95427853 -0.15097082 61.06077921 C-0.11959511 40.70712306 -0.06681174 20.35356864 0 0 Z " fill="#000000" transform="translate(117,179)"/>
<path d="M0 0 C74.58 0 149.16 0 226 0 C217.52095447 8.47904553 208.07469775 15.77699044 198.63671875 23.1484375 C194.90086732 26.0696896 191.19852384 29.03171224 187.5 32 C182.71062905 35.84272089 177.90001535 39.65559248 173.0625 43.4375 C167.97091443 47.41929766 162.94307765 51.47320971 157.9375 55.5625 C152.15925528 60.28200872 146.3020357 64.86528203 140.3671875 69.38671875 C135.70911789 72.96930992 131.1759526 76.70890657 126.64257812 80.44726562 C124.77392727 81.98066414 122.88798071 83.49051305 121 85 C120.38737305 85.51739746 119.77474609 86.03479492 119.14355469 86.56787109 C117.3359375 88.01171875 117.3359375 88.01171875 114 90 C108.98375779 89.41410291 104.80943146 84.75176436 101.0625 81.5625 C99.53750878 80.28520313 98.01145261 79.00917674 96.484375 77.734375 C95.72705078 77.10080078 94.96972656 76.46722656 94.18945312 75.81445312 C91.10593286 73.25906479 87.96955198 70.77611114 84.8125 68.3125 C84.24587646 67.86962646 83.67925293 67.42675293 83.09545898 66.97045898 C81.39806011 65.64557113 79.69909273 64.32271453 78 63 C69.89099366 56.6749286 61.85623432 50.27162732 53.89111328 43.76611328 C48.77752544 39.60182094 43.57285408 35.58016832 38.328125 31.58203125 C33.89096766 28.16893573 29.58069924 24.59982477 25.25341797 21.04931641 C19.42034949 16.28702561 13.44900773 11.719432 7.40722656 7.2253418 C6.72885742 6.71527588 6.05048828 6.20520996 5.3515625 5.6796875 C4.75166504 5.23351074 4.15176758 4.78733398 3.53369141 4.32763672 C2 3 2 3 0 0 Z " fill="#000000" transform="translate(143,166)"/>
</svg>
